<svg width="24" height="24" viewBox="0 0 24 24" fill="none" xmlns="http://www.w3.org/2000/svg">
<g clip-path="url(#clip0_124_44885)">
<path d="M3 1.502C2.60218 1.502 2.22065 1.66003 1.93934 1.94134C1.65804 2.22264 1.5 2.60417 1.5 3.002C1.5 3.39982 1.65804 3.78135 1.93934 4.06266C2.22065 4.34396 2.60218 4.502 3 4.502C3.39783 4.502 3.77936 4.34396 4.06066 4.06266C4.34197 3.78135 4.5 3.39982 4.5 3.002C4.5 2.60417 4.34197 2.22264 4.06066 1.94134C3.77936 1.66003 3.39783 1.502 3 1.502ZM1.46676e-06 3.002C-0.000720717 2.2713 0.265264 1.56545 0.748032 1.01695C1.2308 0.468447 1.89716 0.114995 2.62204 0.0229356C3.34691 -0.069124 4.08047 0.106539 4.68502 0.516953C5.28957 0.927366 5.72355 1.54431 5.9055 2.252H18.0945C18.2269 1.74 18.4923 1.27209 18.8638 0.895695C19.2352 0.519298 19.6996 0.247788 20.2098 0.108677C20.72 -0.0304339 21.258 -0.032202 21.7691 0.103552C22.2802 0.239306 22.7463 0.507758 23.1203 0.881704C23.4942 1.25565 23.7627 1.7218 23.8984 2.23292C24.0342 2.74404 24.0324 3.28196 23.8933 3.79217C23.7542 4.30239 23.4827 4.76676 23.1063 5.13824C22.7299 5.50972 22.262 5.7751 21.75 5.9075V18.0965C22.262 18.2289 22.7299 18.4943 23.1063 18.8657C23.4827 19.2372 23.7542 19.7016 23.8933 20.2118C24.0324 20.722 24.0342 21.26 23.8984 21.7711C23.7627 22.2822 23.4942 22.7483 23.1203 23.1223C22.7463 23.4962 22.2802 23.7647 21.7691 23.9004C21.258 24.0362 20.72 24.0344 20.2098 23.8953C19.6996 23.7562 19.2352 23.4847 18.8638 23.1083C18.4923 22.7319 18.2269 22.264 18.0945 21.752H5.9055C5.77311 22.264 5.50773 22.7319 5.13625 23.1083C4.76477 23.4847 4.30039 23.7562 3.79018 23.8953C3.27996 24.0344 2.74204 24.0362 2.23092 23.9004C1.71981 23.7647 1.25366 23.4962 0.879709 23.1223C0.505763 22.7483 0.237312 22.2822 0.101558 21.7711C-0.0341964 21.26 -0.0324283 20.722 0.106683 20.2118C0.245794 19.7016 0.517304 19.2372 0.8937 18.8657C1.2701 18.4943 1.738 18.2289 2.25 18.0965V5.9075C1.60591 5.74119 1.03535 5.36553 0.62806 4.83957C0.220765 4.31362 -0.000167602 3.66721 1.46676e-06 3.002ZM3.75 5.9075V18.0965C4.8045 18.3665 5.634 19.1975 5.9055 20.252H18.0945C18.229 19.7332 18.4998 19.2597 18.8788 18.8808C19.2577 18.5018 19.7312 18.231 20.25 18.0965V5.9075C19.7312 5.773 19.2577 5.50223 18.8788 5.12324C18.4998 4.74425 18.229 4.27082 18.0945 3.752H5.9055C5.77101 4.27082 5.50024 4.74425 5.12125 5.12324C4.74226 5.50223 4.26883 5.773 3.75 5.9075ZM21 1.502C20.6022 1.502 20.2206 1.66003 19.9393 1.94134C19.658 2.22264 19.5 2.60417 19.5 3.002C19.5 3.39982 19.658 3.78135 19.9393 4.06266C20.2206 4.34396 20.6022 4.502 21 4.502C21.3978 4.502 21.7794 4.34396 22.0607 4.06266C22.342 3.78135 22.5 3.39982 22.5 3.002C22.5 2.60417 22.342 2.22264 22.0607 1.94134C21.7794 1.66003 21.3978 1.502 21 1.502ZM3 19.502C2.60218 19.502 2.22065 19.66 1.93934 19.9413C1.65804 20.2226 1.5 20.6042 1.5 21.002C1.5 21.3998 1.65804 21.7814 1.93934 22.0627C2.22065 22.344 2.60218 22.502 3 22.502C3.39783 22.502 3.77936 22.344 4.06066 22.0627C4.34197 21.7814 4.5 21.3998 4.5 21.002C4.5 20.6042 4.34197 20.2226 4.06066 19.9413C3.77936 19.66 3.39783 19.502 3 19.502ZM21 19.502C20.6022 19.502 20.2206 19.66 19.9393 19.9413C19.658 20.2226 19.5 20.6042 19.5 21.002C19.5 21.3998 19.658 21.7814 19.9393 22.0627C20.2206 22.344 20.6022 22.502 21 22.502C21.3978 22.502 21.7794 22.344 22.0607 22.0627C22.342 21.7814 22.5 21.3998 22.5 21.002C22.5 20.6042 22.342 20.2226 22.0607 19.9413C21.7794 19.66 21.3978 19.502 21 19.502Z" fill="#7C8DB0"/>
</g>
<defs>
<clipPath id="clip0_124_44885">
<rect width="23.999" height="24.0019" fill="white" transform="translate(0 -0.000976562)"/>
</clipPath>
</defs>
</svg>
