<svg width="24" height="12" viewBox="0 0 24 12" fill="none" xmlns="http://www.w3.org/2000/svg">
<path d="M4.30871 11.3628V0.629835H2.54763L-0.000976562 2.48542V4.19099L2.45913 2.42091H2.54913V11.3628H4.31021H4.30871ZM9.12842 3.72747V3.63297C9.12842 2.70592 9.78845 1.87939 10.9225 1.87939C11.9365 1.87939 12.6836 2.53942 12.6836 3.53846C12.6836 4.4745 12.0535 5.19003 11.473 5.82756L7.48435 10.2468V11.3628H14.6547V9.87774H9.96395V9.77423L12.6146 6.7951C13.5896 5.70905 14.4702 4.79702 14.4702 3.38995C14.4687 1.69038 13.0841 0.416826 10.9615 0.416826C8.6019 0.416826 7.42134 2.0129 7.42134 3.64197V3.72747H9.12842ZM18.9673 6.55209H20.1464C21.3809 6.55209 22.2075 7.27362 22.215 8.32067C22.23 9.38121 21.3899 10.1447 20.0834 10.1357C18.9283 10.1282 18.0943 9.50722 18.0148 8.70618H16.3722C16.4352 10.2858 17.7793 11.5833 20.0684 11.5833C22.2855 11.5833 24.0316 10.3248 23.9986 8.36717C23.9686 6.6526 22.6155 5.89056 21.672 5.79606V5.70155C22.4745 5.56655 23.6926 4.71151 23.661 3.18445C23.622 1.60488 22.2615 0.401825 20.1224 0.416826C17.8723 0.424326 16.6467 1.73688 16.6002 3.26395H18.2743C18.3223 2.51692 19.0213 1.84789 20.0834 1.84789C21.1379 1.84789 21.8925 2.50042 21.8925 3.45296C21.9 4.413 21.1364 5.11203 20.0924 5.11203H18.9673V6.55209Z" fill="#7C8DB0"/>
</svg>
