<svg width="20" height="20" viewBox="0 0 20 20" fill="none" xmlns="http://www.w3.org/2000/svg">
<path fill-rule="evenodd" clip-rule="evenodd" d="M2.49981 16.875V8.74999H3.74981V16.875C3.74981 17.0407 3.81566 17.1997 3.93287 17.3169C4.05008 17.4341 4.20905 17.5 4.37481 17.5H15.6248C15.7906 17.5 15.9495 17.4341 16.0668 17.3169C16.184 17.1997 16.2498 17.0407 16.2498 16.875V8.74999H17.4998V16.875C17.4998 17.3723 17.3023 17.8492 16.9506 18.2008C16.599 18.5524 16.1221 18.75 15.6248 18.75H4.37481C3.87753 18.75 3.40062 18.5524 3.04899 18.2008C2.69736 17.8492 2.49981 17.3723 2.49981 16.875ZM16.2498 3.12499V7.49999L13.7498 4.99999V3.12499C13.7498 2.95923 13.8157 2.80025 13.9329 2.68304C14.0501 2.56583 14.2091 2.49999 14.3748 2.49999H15.6248C15.7906 2.49999 15.9495 2.56583 16.0668 2.68304C16.184 2.80025 16.2498 2.95923 16.2498 3.12499Z" fill="#7C8DB0"/>
<path fill-rule="evenodd" clip-rule="evenodd" d="M9.11606 1.87499C9.35047 1.64065 9.66836 1.509 9.99981 1.509C10.3313 1.509 10.6492 1.64065 10.8836 1.87499L19.1923 10.1825C19.3097 10.2998 19.3756 10.459 19.3756 10.625C19.3756 10.791 19.3097 10.9501 19.1923 11.0675C19.075 11.1848 18.9158 11.2508 18.7498 11.2508C18.5838 11.2508 18.4247 11.1848 18.3073 11.0675L9.99981 2.75874L1.69231 11.0675C1.57495 11.1848 1.41578 11.2508 1.24981 11.2508C1.08384 11.2508 0.924671 11.1848 0.807313 11.0675C0.689955 10.9501 0.624023 10.791 0.624023 10.625C0.624023 10.459 0.689955 10.2998 0.807313 10.1825L9.11606 1.87499Z" fill="#7C8DB0"/>
</svg>
